<svg xmlns="http://www.w3.org/2000/svg" width="325.6" height="242.8" viewBox="0 0 86.1 64.2"><path stroke="#000" stroke-width="5" stroke-linecap="square" stroke-opacity=".9" fill="none" d="M2.5 2.5h81v59.2h-81z"/><g font-weight="400" font-family="Ebrima" letter-spacing="0" word-spacing="0"><path style="line-height:125%;-inkscape-font-specification:Ebrima;text-align:start" d="M9.3 59v-8.1q1.4 1.2 3.3 2.2 2 1 4 1.6 2.2.7 4.3 1 2.2.4 4 .4 6.3 0 9.4-2.3 3-2.4 3-6.7 0-2.4-1-4.1-1-1.8-2.8-3.2-1.8-1.5-4.4-2.7-2.4-1.4-5.3-2.8L18.1 31q-2.6-1.5-4.6-3.5-2-1.9-3-4.3-1.1-2.4-1.1-5.6 0-4 1.7-7 1.7-2.9 4.6-4.8Q18.5 4 22 3.1q3.7-1 7.5-1 8.6 0 12.5 2.1V12q-5.2-3.6-13.2-3.6-2.3 0-4.5.5-2.2.4-4 1.5-1.7 1-2.8 2.7-1.1 1.7-1.1 4t.8 4q.9 1.5 2.5 2.9 1.6 1.3 4 2.6l5.3 2.7 6 3.3q2.7 1.7 4.8 3.7 2.1 2.1 3.4 4.6 1.2 2.5 1.2 5.8 0 4.3-1.7 7.3-1.6 3-4.5 4.8-2.9 1.9-6.6 2.7-3.7.8-7.9.8l-3.4-.2q-2-.2-4.1-.7-2.1-.4-4-1t-3-1.4z"/><path style="line-height:125%;-inkscape-font-specification:Ebrima;text-align:start" d="M61.9 62.2q-9.2 0-14.7-5.8T41.7 41q0-10.5 5.7-16.4 5.7-5.8 15.5-5.8 9.2 0 14.4 5.7 5.3 5.7 5.3 15.8 0 10-5.7 16-5.6 6-15 6zm.5-37.8q-6.4 0-10.2 4.3-3.7 4.4-3.7 12 0 7.4 3.8 11.7 3.7 4.2 10 4.2 6.5 0 10-4.1 3.5-4.2 3.5-12 0-7.7-3.5-12-3.5-4.1-10-4.1z"/></g></svg>